# xmcd CD database file
#
# Track frame offsets:
#	150
#	20675
#	36990
#	52287
#	70537
#	87780
#	106432
#	125307
#	142505
#	161367
#
# Disc length: 2358 seconds
#
# Revision: 0
# Processed by: cddbd v1.5.1PL0 Copyright (c) Steve Scherf et al.
# Submitted via: CDex 1.51
#
DISCID=7c09340a
DTITLE=Wonders - Celtic Moods
DYEAR=1998
DGENRE=New Age
TTITLE0=He Walked Ten Miles
TTITLE1=The Mists Of Time
TTITLE2=Rapture
TTITLE3=Sandy's Moonshine
TTITLE4=The Scent Of The Heather
TTITLE5=Sit Right Down Sir
TTITLE6=The Song Of Freedom
TTITLE7=The Fox And The Partridge
TTITLE8=The Thistle
TTITLE9=and We Danced 'Till Dawn
EXTD=YEAR: 1998
EXTT0=
EXTT1=
EXTT2=
EXTT3=
EXTT4=
EXTT5=
EXTT6=
EXTT7=
EXTT8=
EXTT9=
PLAYORDER=
